<svg xmlns="http://www.w3.org/2000/svg" viewBox="0 0 1200 630" width="1200" height="630">
  <rect width="1200" height="630" fill="#1A1A2E"/>
  <!-- Top gold accent line -->
  <rect x="100" y="80" width="1000" height="3" fill="#D4AF37"/>
  <!-- Bottom gold accent line -->
  <rect x="100" y="550" width="1000" height="3" fill="#D4AF37"/>
  <!-- Decorative gold corner elements -->
  <rect x="80" y="60" width="40" height="3" fill="#D4AF37"/>
  <rect x="80" y="60" width="3" height="40" fill="#D4AF37"/>
  <rect x="1080" y="60" width="40" height="3" fill="#D4AF37"/>
  <rect x="1117" y="60" width="3" height="40" fill="#D4AF37"/>
  <rect x="80" y="570" width="40" height="3" fill="#D4AF37"/>
  <rect x="80" y="533" width="3" height="40" fill="#D4AF37"/>
  <rect x="1080" y="570" width="40" height="3" fill="#D4AF37"/>
  <rect x="1117" y="533" width="3" height="40" fill="#D4AF37"/>
  <!-- Decorative star icons suggesting celebrity -->
  <polygon points="300,180 305,195 320,195 308,205 312,220 300,212 288,220 292,205 280,195 295,195" fill="#D4AF37" opacity="0.25"/>
  <polygon points="600,160 606,178 625,178 610,190 615,208 600,198 585,208 590,190 575,178 594,178" fill="#D4AF37" opacity="0.3"/>
  <polygon points="900,180 905,195 920,195 908,205 912,220 900,212 888,220 892,205 880,195 895,195" fill="#D4AF37" opacity="0.25"/>
  <!-- Title -->
  <text x="600" y="310" text-anchor="middle" font-family="Georgia, 'Times New Roman', serif" font-size="68" font-weight="bold" fill="#FFFFFF">Celebrity Directory</text>
  <!-- Decorative gold divider -->
  <rect x="400" y="340" width="400" height="2" fill="#D4AF37"/>
  <circle cx="600" cy="341" r="5" fill="#D4AF37"/>
  <circle cx="500" cy="341" r="3" fill="#D4AF37"/>
  <circle cx="700" cy="341" r="3" fill="#D4AF37"/>
  <!-- Subtitle -->
  <text x="600" y="400" text-anchor="middle" font-family="Georgia, 'Times New Roman', serif" font-size="28" fill="#B8B8CC">50+ Icons and Their Paris Connections</text>
  <!-- Bottom branding -->
  <text x="600" y="510" text-anchor="middle" font-family="Georgia, 'Times New Roman', serif" font-size="16" fill="#D4AF37">CelebrityParis.com</text>
</svg>
