<svg xmlns="http://www.w3.org/2000/svg" viewBox="0 0 1200 630" width="1200" height="630">
  <rect width="1200" height="630" fill="#1A1A2E"/>
  <!-- Top gold accent line -->
  <rect x="100" y="80" width="1000" height="3" fill="#D4AF37"/>
  <!-- Bottom gold accent line -->
  <rect x="100" y="550" width="1000" height="3" fill="#D4AF37"/>
  <!-- Decorative gold corner elements -->
  <rect x="80" y="60" width="40" height="3" fill="#D4AF37"/>
  <rect x="80" y="60" width="3" height="40" fill="#D4AF37"/>
  <rect x="1080" y="60" width="40" height="3" fill="#D4AF37"/>
  <rect x="1117" y="60" width="3" height="40" fill="#D4AF37"/>
  <rect x="80" y="570" width="40" height="3" fill="#D4AF37"/>
  <rect x="80" y="533" width="3" height="40" fill="#D4AF37"/>
  <rect x="1080" y="570" width="40" height="3" fill="#D4AF37"/>
  <rect x="1117" y="533" width="3" height="40" fill="#D4AF37"/>
  <!-- Small Eiffel Tower silhouette hint -->
  <polygon points="600,140 585,220 615,220" fill="#D4AF37" opacity="0.3"/>
  <polygon points="600,160 575,240 625,240" fill="#D4AF37" opacity="0.2"/>
  <rect x="595" y="120" width="10" height="25" fill="#D4AF37" opacity="0.3"/>
  <!-- Title -->
  <text x="600" y="310" text-anchor="middle" font-family="Georgia, 'Times New Roman', serif" font-size="72" font-weight="bold" fill="#FFFFFF">CelebrityParis.com</text>
  <!-- Decorative gold divider -->
  <rect x="400" y="340" width="400" height="2" fill="#D4AF37"/>
  <circle cx="600" cy="341" r="5" fill="#D4AF37"/>
  <circle cx="500" cy="341" r="3" fill="#D4AF37"/>
  <circle cx="700" cy="341" r="3" fill="#D4AF37"/>
  <!-- Subtitle -->
  <text x="600" y="400" text-anchor="middle" font-family="Georgia, 'Times New Roman', serif" font-size="28" fill="#B8B8CC">The Living Archive of Celebrity Culture in Paris</text>
  <!-- Bottom branding -->
  <text x="600" y="510" text-anchor="middle" font-family="Georgia, 'Times New Roman', serif" font-size="16" fill="#D4AF37">CelebrityParis.com</text>
</svg>
