<svg xmlns="http://www.w3.org/2000/svg" viewBox="0 0 1200 630" width="1200" height="630">
  <rect width="1200" height="630" fill="#1A1A2E"/>
  <!-- Top gold accent line -->
  <rect x="100" y="80" width="1000" height="3" fill="#D4AF37"/>
  <!-- Bottom gold accent line -->
  <rect x="100" y="550" width="1000" height="3" fill="#D4AF37"/>
  <!-- Decorative gold corner elements -->
  <rect x="80" y="60" width="40" height="3" fill="#D4AF37"/>
  <rect x="80" y="60" width="3" height="40" fill="#D4AF37"/>
  <rect x="1080" y="60" width="40" height="3" fill="#D4AF37"/>
  <rect x="1117" y="60" width="3" height="40" fill="#D4AF37"/>
  <rect x="80" y="570" width="40" height="3" fill="#D4AF37"/>
  <rect x="80" y="533" width="3" height="40" fill="#D4AF37"/>
  <rect x="1080" y="570" width="40" height="3" fill="#D4AF37"/>
  <rect x="1117" y="533" width="3" height="40" fill="#D4AF37"/>
  <!-- Film reel / clapperboard icon -->
  <g opacity="0.25" fill="#D4AF37">
    <!-- Film strip left -->
    <rect x="350" y="155" width="30" height="80" rx="2"/>
    <rect x="355" y="160" width="8" height="8" rx="1" fill="#1A1A2E"/>
    <rect x="367" y="160" width="8" height="8" rx="1" fill="#1A1A2E"/>
    <rect x="355" y="175" width="8" height="8" rx="1" fill="#1A1A2E"/>
    <rect x="367" y="175" width="8" height="8" rx="1" fill="#1A1A2E"/>
    <rect x="355" y="190" width="8" height="8" rx="1" fill="#1A1A2E"/>
    <rect x="367" y="190" width="8" height="8" rx="1" fill="#1A1A2E"/>
    <rect x="355" y="205" width="8" height="8" rx="1" fill="#1A1A2E"/>
    <rect x="367" y="205" width="8" height="8" rx="1" fill="#1A1A2E"/>
    <rect x="355" y="220" width="8" height="8" rx="1" fill="#1A1A2E"/>
    <rect x="367" y="220" width="8" height="8" rx="1" fill="#1A1A2E"/>
    <!-- Film strip right -->
    <rect x="820" y="155" width="30" height="80" rx="2"/>
    <rect x="825" y="160" width="8" height="8" rx="1" fill="#1A1A2E"/>
    <rect x="837" y="160" width="8" height="8" rx="1" fill="#1A1A2E"/>
    <rect x="825" y="175" width="8" height="8" rx="1" fill="#1A1A2E"/>
    <rect x="837" y="175" width="8" height="8" rx="1" fill="#1A1A2E"/>
    <rect x="825" y="190" width="8" height="8" rx="1" fill="#1A1A2E"/>
    <rect x="837" y="190" width="8" height="8" rx="1" fill="#1A1A2E"/>
    <rect x="825" y="205" width="8" height="8" rx="1" fill="#1A1A2E"/>
    <rect x="837" y="205" width="8" height="8" rx="1" fill="#1A1A2E"/>
    <rect x="825" y="220" width="8" height="8" rx="1" fill="#1A1A2E"/>
    <rect x="837" y="220" width="8" height="8" rx="1" fill="#1A1A2E"/>
  </g>
  <!-- Center camera/projector icon -->
  <g opacity="0.2" fill="#D4AF37">
    <circle cx="600" cy="190" r="30"/>
    <circle cx="600" cy="190" r="20" fill="#1A1A2E"/>
    <circle cx="600" cy="190" r="8"/>
  </g>
  <!-- Title -->
  <text x="600" y="310" text-anchor="middle" font-family="Georgia, 'Times New Roman', serif" font-size="72" font-weight="bold" fill="#FFFFFF">Paris in Film</text>
  <!-- Decorative gold divider -->
  <rect x="400" y="340" width="400" height="2" fill="#D4AF37"/>
  <circle cx="600" cy="341" r="5" fill="#D4AF37"/>
  <circle cx="500" cy="341" r="3" fill="#D4AF37"/>
  <circle cx="700" cy="341" r="3" fill="#D4AF37"/>
  <!-- Subtitle -->
  <text x="600" y="400" text-anchor="middle" font-family="Georgia, 'Times New Roman', serif" font-size="28" fill="#B8B8CC">Movies, Premieres &amp; Festivals</text>
  <!-- Bottom branding -->
  <text x="600" y="510" text-anchor="middle" font-family="Georgia, 'Times New Roman', serif" font-size="16" fill="#D4AF37">CelebrityParis.com</text>
</svg>
