<svg xmlns="http://www.w3.org/2000/svg" viewBox="0 0 1200 630" width="1200" height="630">
  <rect width="1200" height="630" fill="#1A1A2E"/>
  <!-- Top gold accent line -->
  <rect x="100" y="80" width="1000" height="3" fill="#D4AF37"/>
  <!-- Bottom gold accent line -->
  <rect x="100" y="550" width="1000" height="3" fill="#D4AF37"/>
  <!-- Decorative gold corner elements -->
  <rect x="80" y="60" width="40" height="3" fill="#D4AF37"/>
  <rect x="80" y="60" width="3" height="40" fill="#D4AF37"/>
  <rect x="1080" y="60" width="40" height="3" fill="#D4AF37"/>
  <rect x="1117" y="60" width="3" height="40" fill="#D4AF37"/>
  <rect x="80" y="570" width="40" height="3" fill="#D4AF37"/>
  <rect x="80" y="533" width="3" height="40" fill="#D4AF37"/>
  <rect x="1080" y="570" width="40" height="3" fill="#D4AF37"/>
  <rect x="1117" y="533" width="3" height="40" fill="#D4AF37"/>
  <!-- Decorative building facade silhouette -->
  <g opacity="0.2" fill="#D4AF37">
    <rect x="350" y="170" width="120" height="60" rx="2"/>
    <rect x="360" y="180" width="20" height="25" rx="1" fill="#1A1A2E"/>
    <rect x="390" y="180" width="20" height="25" rx="1" fill="#1A1A2E"/>
    <rect x="420" y="180" width="20" height="25" rx="1" fill="#1A1A2E"/>
    <rect x="395" y="210" width="30" height="20" rx="1" fill="#1A1A2E"/>
    <rect x="380" y="160" width="60" height="12" rx="1"/>
  </g>
  <g opacity="0.2" fill="#D4AF37">
    <rect x="730" y="170" width="120" height="60" rx="2"/>
    <rect x="740" y="180" width="20" height="25" rx="1" fill="#1A1A2E"/>
    <rect x="770" y="180" width="20" height="25" rx="1" fill="#1A1A2E"/>
    <rect x="800" y="180" width="20" height="25" rx="1" fill="#1A1A2E"/>
    <rect x="775" y="210" width="30" height="20" rx="1" fill="#1A1A2E"/>
    <rect x="760" y="160" width="60" height="12" rx="1"/>
  </g>
  <!-- Title -->
  <text x="600" y="310" text-anchor="middle" font-family="Georgia, 'Times New Roman', serif" font-size="68" font-weight="bold" fill="#FFFFFF">Iconic Paris Venues</text>
  <!-- Decorative gold divider -->
  <rect x="400" y="340" width="400" height="2" fill="#D4AF37"/>
  <circle cx="600" cy="341" r="5" fill="#D4AF37"/>
  <circle cx="500" cy="341" r="3" fill="#D4AF37"/>
  <circle cx="700" cy="341" r="3" fill="#D4AF37"/>
  <!-- Subtitle -->
  <text x="600" y="400" text-anchor="middle" font-family="Georgia, 'Times New Roman', serif" font-size="28" fill="#B8B8CC">Where Celebrity Culture Lives</text>
  <!-- Bottom branding -->
  <text x="600" y="510" text-anchor="middle" font-family="Georgia, 'Times New Roman', serif" font-size="16" fill="#D4AF37">CelebrityParis.com</text>
</svg>
